<svg xmlns="http://www.w3.org/2000/svg" width="512" height="512" viewBox="0 0 512 512">
  <defs>
    <linearGradient id="leaf" x1="0" y1="0" x2="1" y2="1">
      <stop offset="0" stop-color="#00E0BA"/>
      <stop offset="0.6" stop-color="#00E0BA"/>
      <stop offset="1" stop-color="#FF3483"/>
    </linearGradient>
  </defs>
  <rect width="512" height="512" rx="96" fill="#0b1410"/>
  <!-- leaf body -->
  <path d="M256 88
           C 150 130, 108 250, 128 396
           C 274 416, 394 374, 436 268
           C 402 150, 340 108, 256 88 Z"
        fill="url(#leaf)"/>
  <!-- central vein -->
  <path d="M150 384 C 250 320, 340 232, 410 150"
        stroke="#0b1410" stroke-width="16" fill="none" stroke-linecap="round"/>
  <!-- side veins -->
  <g stroke="#0b1410" stroke-width="10" fill="none" stroke-linecap="round" opacity="0.85">
    <path d="M214 344 C 250 320, 280 300, 300 268"/>
    <path d="M262 300 C 300 280, 330 258, 352 226"/>
    <path d="M188 300 C 224 286, 252 268, 272 240"/>
  </g>
</svg>
